<svg xmlns="http://www.w3.org/2000/svg" id="svg4817" version="1.1" viewBox="0 0 274.7 73.62"><defs id="defs4691"><style id="style4689">.cls-1{fill:#929394}.cls-2{fill:#919394}.cls-3{fill:#acc9c9}.cls-4{fill:#a49b9c}.cls-5{fill:#c8aeae}.cls-6{fill:#c8e4e4}.cls-7{fill:#e3c9c9}.cls-8{fill:#c5c7c8}.cls-9{fill:#ece4e4}.cls-10{fill:#adaeaf}.cls-11{fill:#f4a462}.cls-12{fill:#ee7f16}.cls-13{fill:#ee7f17}.cls-14{fill:#e4e4e4}</style></defs><g id="Capa_2" data-name="Capa 2"><g id="Capa_1-2" data-name="Capa 1"><path id="path4695" d="M183.22 23.8a12.43 12.43 0 0 1 9.9 5.43l-3.65 3a3.49 3.49 0 0 1-.24-.25 8.39 8.39 0 0 0-3.78-2.9 5.75 5.75 0 0 0-2-.43c-.41 0-.81-.06-1.22-.1l-1 .08a7.53 7.53 0 0 0-6.62 6.11 9.52 9.52 0 0 0 .53 5.75 7.49 7.49 0 0 0 5.09 4.37 10.25 10.25 0 0 0 3.57.28l.5-.08a7.83 7.83 0 0 0 4.24-2 6.59 6.59 0 0 0 .65-.74.65.65 0 0 0 .14-.35V40.1h-6.81a28.62 28.62 0 0 1-.07-4.41c.35-.1 11.35-.12 12 0v7.08a1.24 1.24 0 0 1-.2.69 13.33 13.33 0 0 1-8.83 6.12c-.35.08-.71.12-1.07.18l-.79.09h-2.16l-.79-.09a13.32 13.32 0 0 1-7.19-3.18 12.2 12.2 0 0 1-4.23-7.75 12.63 12.63 0 0 1 4.12-11.63 12.93 12.93 0 0 1 6.51-3.2 10.54 10.54 0 0 1 2-.22Z" class="cls-1"/><path id="path4697" d="M253.57 49.3V24.28a2.18 2.18 0 0 1 .34-.06h9.58a9.44 9.44 0 0 1 5.18 1.55 7.26 7.26 0 0 1 3.28 5.23 8.36 8.36 0 0 1-.53 4.64 7.64 7.64 0 0 1-3.32 3.67l-.42.24.93 1.29 5.86 8.13c.09.12.15.25.23.38h-5.74c-.75-1-1.5-2-2.24-3l-4-5.49a.67.67 0 0 0-.61-.33h-3.35v8.77Zm10.17-20.45a1.32 1.32 0 0 0-.32-.08H259c-.08 0-.16.07-.24.11v6.99l.17.09h4.25l.6-.07a3.31 3.31 0 0 0 3.05-3.48 3.33 3.33 0 0 0-3.09-3.56Z" class="cls-1"/><path id="path4699" d="M217.1 49.31V38.57H206v10.12c0 .21 0 .42-.06.63h-5.12V24.35l.07-.08H206v9.57a3 3 0 0 0 .51.09h10.09a1.88 1.88 0 0 0 .44-.11V24.29h5.13V49.34Z" class="cls-2"/><path id="path4701" d="M137.36 45a5.39 5.39 0 0 0 2.07-.75 4.77 4.77 0 0 0 2.09-2.83 8.39 8.39 0 0 0 .29-2.34V24.29h5.1a3.18 3.18 0 0 1 0 .37v15a10.2 10.2 0 0 1-2.74 7 9.69 9.69 0 0 1-5.08 2.86 12.87 12.87 0 0 1-3.46.3 10.35 10.35 0 0 1-7-2.88 9.88 9.88 0 0 1-2.75-5.2 14.79 14.79 0 0 1-.29-3V24.37l.07-.08h5.09v15.1a6.84 6.84 0 0 0 .31 2.19 4.84 4.84 0 0 0 3.64 3.34c.17 0 .35.07.53.1l.8.08h.48Z" class="cls-2"/><path id="path4703" d="M247.22 44.78v4.53h-17.28l-.08-.09V24.33h16.87v4.54h-11.28a1.93 1.93 0 0 0-.45.13v4.92l.17.09h8.48v4.33h-8.15c-.16 0-.36-.1-.49.11v6.19a1.22 1.22 0 0 0 .34.12h1.28Z" class="cls-2"/><path id="path4705" d="M109.57 24.32v20.34a3.21 3.21 0 0 0 .56.1h10.39v4.53h-16.11a3.57 3.57 0 0 1-.06-.48V24.23a42.06 42.06 0 0 1 5.11-.07Z" class="cls-2"/><path id="path4707" d="m153.37 49.7-1.79-.3v-4.36h1.29a1 1 0 0 0 .27.08h1.74a.93.93 0 0 0 .27-.09 10.7 10.7 0 0 0 1.09-.3 2.14 2.14 0 0 0 1.37-1.73 6.08 6.08 0 0 0 .09-1V24.3h5.13v18.67a8.39 8.39 0 0 1-.43 2.67 5.66 5.66 0 0 1-3.51 3.63 10.77 10.77 0 0 1-4.36.59h-.39Z" class="cls-2"/><path id="path4709" d="M229.94 49.3h17.28a2.47 2.47 0 0 1-.5.1h-16.31a3.05 3.05 0 0 1-.55-.1h.09Z" class="cls-3"/><path id="path4711" d="M246.74 24.32h-16.88c.05 0 .1-.09.15-.09a3.45 3.45 0 0 1 .39 0h15.78a3.13 3.13 0 0 1 .56.09Z" class="cls-4"/><path id="path4713" d="M104.46 49.36h16.1a2.46 2.46 0 0 1-.5.1H105c-.15-.05-.35-.08-.54-.1Z" class="cls-3"/><path id="path4715" d="M247.22 44.78H235.34a1.22 1.22 0 0 1-.34-.12h11.64a3 3 0 0 1 .58.12Z" class="cls-5"/><path id="path4717" d="M235 29a1.93 1.93 0 0 1 .44-.11h11.29a3.19 3.19 0 0 1-.56.1H235Z" class="cls-6"/><path id="path4719" d="M217.07 33.78a1.88 1.88 0 0 1-.44.11h-10.09a3 3 0 0 1-.51-.09h10.41Z" class="cls-7"/><path id="path4721" d="M120.55 44.78h-10.39a3.21 3.21 0 0 1-.56-.1H120a3 3 0 0 1 .55.1Z" class="cls-5"/><path id="path4723" d="M235 38.46c.12-.21.33-.11.49-.11h8.18c-.14.22-.36.12-.54.12H235Z" class="cls-6"/><path id="path4725" d="M269 49.33h5.74a1.07 1.07 0 0 1-.3.1h-5.11a1.33 1.33 0 0 1-.33-.1Z" class="cls-3"/><path id="path4727" d="M200.82 49.29h5.12a1.64 1.64 0 0 1-.36.09h-4.38a1.43 1.43 0 0 1-.38-.09Z" class="cls-8"/><path id="path4729" d="M217.1 49.31h5.12a1 1 0 0 1-.3.1h-4.52a1.08 1.08 0 0 1-.3-.1Z" class="cls-3"/><path id="path4731" d="M253.57 49.3h5.12a1.08 1.08 0 0 1-.31.1h-4.52a1 1 0 0 1-.29-.1Z" class="cls-3"/><path id="path4733" d="M155.15 45.07a.93.93 0 0 1-.27.09h-1.74a1 1 0 0 1-.27-.08Z" class="cls-5"/><path id="path4735" d="M183.22 23.8h-1.4a2.61 2.61 0 0 1 1.4 0Z" class="cls-7"/><path id="path4737" d="M152.59 45h-1a1.33 1.33 0 0 1 1 0Z" class="cls-7"/><path id="path4739" d="m181.22 28.64 1-.08Z" class="cls-3"/><path id="path4741" d="m136.09 45-.8-.08Z" class="cls-7"/><path id="path4743" d="m137.36 45-.79.08Z" class="cls-7"/><path id="path4745" d="m153.37 49.7.79.09Z" class="cls-3"/><path id="path4747" d="m180.64 49.7.79.09Z" class="cls-3"/><path id="path4749" d="m183.6 49.79.79-.09Z" class="cls-3"/><path id="path4751" d="m184.3 45.06-.5.08Z" class="cls-7"/><path id="path4753" d="m235.18 34-.17-.09Z" class="cls-9"/><path id="path4755" d="M229.94 49.3h-.09a.11.11 0 0 1 0-.09Z" class="cls-4"/><path id="path4757" d="m200.9 24.24-.07.08Z" class="cls-10"/><path id="path4759" d="m125.71 24.24-.07.08Z" class="cls-10"/><path id="path4761" d="m109.57 24.32-.07-.08Z" class="cls-10"/><path id="path4763" d="M46.15 11.17a2.45 2.45 0 0 0 .26.39l4.79 4.79a1.86 1.86 0 0 0 .35.22 2.61 2.61 0 0 0 .29.44l4.78 4.78A2.08 2.08 0 0 0 57 22a3 3 0 0 0 .28.39L62 27.14a3 3 0 0 0 .39.28 3.08 3.08 0 0 0 .3.43l4.57 4.58a4.65 4.65 0 0 1 .36.46l-2.14-.32-5.64-.94-5.64-.94-5-.84-4.37-.72a2.57 2.57 0 0 1-.32-.1c-.14-.8-.28-1.6-.41-2.41L43 20.3l-.93-5.59q-.52-3.11-1-6.22c-.14-.86-.27-1.72-.41-2.57a5 5 0 0 1 .41.34l4.6 4.59a3.12 3.12 0 0 0 .48.32Z" class="cls-11"/><path id="path4765" d="M57 22a2.08 2.08 0 0 1-.36-.23L51.86 17a2.61 2.61 0 0 1-.29-.44l.34-.36Q59.82 8.31 67.72.39a1.19 1.19 0 0 1 .94-.39H73.53v5.01a1 1 0 0 1-.32.77Z" class="cls-12"/><path id="path4767" d="M46.15 11.17a3.12 3.12 0 0 1-.47-.32l-4.6-4.59a5 5 0 0 0-.41-.34.8.8 0 0 1 .11-.25Q43.52 2.93 46.27.2a.67.67 0 0 1 .42-.2h10.42s.05 0 .12.06a1.33 1.33 0 0 1-.11.14Z" class="cls-13"/><path id="path4769" d="M67.62 32.89a4.65 4.65 0 0 0-.36-.46l-4.57-4.58a3.08 3.08 0 0 1-.3-.43l11.12-11.13v10.44a.88.88 0 0 1-.29.69l-5.21 5.2c-.08.14-.16.38-.39.27Z" class="cls-13"/><path id="path4771" d="m32.89 5.93-.6 3.74-.84 5.05-.84 5.05-.84 5.05-.72 4.18-1.05.2-7.53 1.3-6.22 1L8 32.58c-.69.11-1.39.2-2.09.3a5.14 5.14 0 0 1 .36-.46l4.56-4.57a3.08 3.08 0 0 0 .3-.43 3 3 0 0 0 .39-.28l4.73-4.73a3 3 0 0 0 .28-.39 2.06 2.06 0 0 0 .36-.23L21.7 17a2.62 2.62 0 0 0 .29-.44 1.46 1.46 0 0 0 .32-.19l4.86-4.86a2 2 0 0 0 .23-.36 3.12 3.12 0 0 0 .47-.32l4.6-4.59a4.71 4.71 0 0 1 .42-.31Z" class="cls-11"/><path id="path4773" d="M22 16.58a2.62 2.62 0 0 1-.29.44l-4.78 4.78a2.06 2.06 0 0 1-.36.23L.32 5.79A1 1 0 0 1 0 5V0h5a1 1 0 0 1 .77.32l14.55 14.57Z" class="cls-12"/><path id="path4775" d="M32.89 5.93a4.71 4.71 0 0 0-.42.33l-4.6 4.59a3.12 3.12 0 0 1-.47.32L22.27 6 16.72.5a4.72 4.72 0 0 0-.43-.34l.05-.1a2.16 2.16 0 0 1 .3 0h10.13a.77.77 0 0 1 .6.26l5.3 5.31a1.82 1.82 0 0 1 .22.3Z" class="cls-13"/><path id="path4777" d="M11.17 27.42a3.08 3.08 0 0 1-.3.43l-4.56 4.57a5.14 5.14 0 0 0-.36.46 1.08 1.08 0 0 1-.33-.15C3.81 30.93 2 29.12.19 27.32a.76.76 0 0 1-.19-.63V16.26Z" class="cls-13"/><path id="path4779" d="M40.73 67.59c.08-.62.15-1.23.25-1.85.17-1.1.37-2.2.55-3.29l.65-3.87c.18-1.08.36-2.16.54-3.25.22-1.29.44-2.58.65-3.87.18-1.08.35-2.17.53-3.25s.39-2.22.57-3.34c0-.28.17-.36.44-.41 1.5-.24 3-.51 4.5-.76l4.46-.7 4.45-.76 5-.82 3.82-.66a1.81 1.81 0 0 1 .34 0 4.84 4.84 0 0 1-.36.45l-4.42 4.48a3.33 3.33 0 0 0-.33.47c-.12.1-.26.2-.37.32l-4.65 4.66a3.08 3.08 0 0 0-.32.47c-.24-.06-.36.12-.49.25l-4.76 4.76a2.36 2.36 0 0 0-.26.39c-.1.08-.21.16-.3.25l-4.83 4.83c-.09.09-.17.2-.25.3a3 3 0 0 0-.43.3l-4.57 4.57c-.14.11-.28.21-.41.33Z" class="cls-8"/><path id="path4781" d="M51.51 57a2.36 2.36 0 0 1 .26-.39l4.76-4.76c.14-.14.26-.31.49-.25l.38.39q7.88 7.88 15.76 15.75a1.19 1.19 0 0 1 .39.95v4.84h-5.46l-.4-.37-15.75-15.75Z" class="cls-2"/><path id="path4783" d="M62.37 46.15a3.33 3.33 0 0 1 .33-.47l4.47-4.48a4.84 4.84 0 0 0 .36-.45c.28-.11.42.1.58.26l4.43 4.43a4 4 0 0 1 1 1 3.71 3.71 0 0 1 .05 1.37v9.38h-.1Z" class="cls-1"/><path id="path4785" d="M40.73 67.59c.14-.12.28-.22.41-.35l4.57-4.57a3 3 0 0 1 .43-.3l1.81 1.82L56.77 73l.37.39a3.38 3.38 0 0 1-.56.09h-10.2l-5.43-5.44c-.13-.1-.38-.19-.22-.45Z" class="cls-1"/><path id="path4787" d="M46.38 73.51h10.21a3.38 3.38 0 0 0 .56-.09v.17a1.88 1.88 0 0 1-.34 0h-10a2 2 0 0 1-.43-.08Z" class="cls-3"/><path id="path4789" d="M68.09 73.53h5.44a1.08 1.08 0 0 1-.31.1h-4.81a1.28 1.28 0 0 1-.32-.1Z" class="cls-3"/><path id="path4791" d="M73.43 57.23Z" class="cls-14"/><path id="path4793" d="M6 40.75c.53.07 1.07.13 1.6.21l3.83.64 3.92.66 3.83.63 3.87.65 3.25.53 2.47.4c.2 0 .27.16.3.33l.27 1.5q.34 2 .67 4c.21 1.28.41 2.55.62 3.83s.44 2.58.66 3.87.41 2.55.63 3.83.43 2.55.64 3.83c.11.66.19 1.32.29 2-.15-.13-.31-.24-.44-.38l-4.57-4.56a3 3 0 0 0-.43-.3c-.08-.1-.16-.21-.25-.3l-4.83-4.83c-.09-.09-.2-.17-.3-.25a1.17 1.17 0 0 0-.16-.29q-2.44-2.51-4.87-4.97a1.36 1.36 0 0 0-.42-.19 1.38 1.38 0 0 0-.18-.33l-5-5a1 1 0 0 0-.16-.11 3.33 3.33 0 0 0-.33-.47L6.39 41.2a4.83 4.83 0 0 1-.39-.45Z" class="cls-8"/><path id="path4795" d="M16.53 51.59a1.36 1.36 0 0 1 .42.19q2.48 2.45 4.93 4.93A1.17 1.17 0 0 1 22 57l-.43.41L5.86 73.16l-.4.37H0v-5.14A.88.88 0 0 1 .2 68a2.21 2.21 0 0 1 .31-.32L16.15 52Z" class="cls-2"/><path id="path4797" d="M6 40.75a4.83 4.83 0 0 0 .36.45l4.47 4.48a3.33 3.33 0 0 1 .33.47L.12 57.23H0V46.77a.73.73 0 0 1 .24-.56l5.27-5.27c.15-.15.29-.28.49-.19Z" class="cls-1"/><path id="path4799" d="M27.42 62.38a3 3 0 0 1 .43.3l4.57 4.56c.14.14.3.26.44.38s-.06.3-.17.41l-1.39 1.39-4.12 4.09H16.82a1.88 1.88 0 0 1-.41-.1l.37-.39L27 62.84Z" class="cls-1"/><path id="path4801" d="M16.41 73.42a1.88 1.88 0 0 0 .41.1h10.37a1.76 1.76 0 0 1-.41.1H16.72a3.1 3.1 0 0 1-.34 0Z" class="cls-3"/><path id="path4803" d="M0 73.52h5.47a2.11 2.11 0 0 1-.42.08H.43a1.79 1.79 0 0 1-.43-.08Z" class="cls-3"/><path id="path4805" d="M0 57.23Z" class="cls-14"/><path id="path4809" d="M263.74 28.85h-5c.08 0 .16-.11.24-.11h4.45a1.32 1.32 0 0 1 .31.11Z" class="cls-6"/><path id="path4811" d="m263.14 35.95.6-.07Z" class="cls-9"/><path id="path4813" d="m258.73 35.87.17.09Z" class="cls-9"/></g></g></svg>