<svg xmlns="http://www.w3.org/2000/svg" viewBox="0 0 310.81 83.3"><defs><style>.cls-1{fill:#fff}</style></defs><g id="Capa_2" data-name="Capa 2"><g id="Capa_1-2" data-name="Capa 1"><path d="M260.18 55.79h19.55a2.79 2.79 0 0 1-.56.12H260.7a3.45 3.45 0 0 1-.62-.11h.1ZM279.18 27.51h-19.1c.06 0 .11-.1.17-.11a3.9 3.9 0 0 1 .45 0h17.86a3.54 3.54 0 0 1 .62.11ZM118.19 55.85c.22 0 .44-.05.66-.05h17.55a2.79 2.79 0 0 1-.56.12h-17c-.21-.01-.43-.05-.65-.07ZM279.72 50.66h-13.45a1.38 1.38 0 0 1-.39-.13h13.22a3.34 3.34 0 0 1 .62.13ZM265.91 32.78a2.18 2.18 0 0 1 .5-.12h12.77a3.61 3.61 0 0 1-.63.11h-11.92ZM245.61 38.23a2.12 2.12 0 0 1-.5.13h-11.42a3.43 3.43 0 0 1-.58-.1h11.77ZM136.4 50.66h-11.76a3.63 3.63 0 0 1-.63-.11h11.77a3.35 3.35 0 0 1 .62.11ZM265.91 43.52c.14-.23.37-.12.55-.12H275.69c-.16.25-.4.13-.61.13h-8.51ZM304.32 55.81h6.49a1.21 1.21 0 0 1-.34.11h-5.79a1.51 1.51 0 0 1-.36-.11ZM227.22 55.77H233a1.86 1.86 0 0 1-.41.1h-4.95a1.62 1.62 0 0 1-.42-.1ZM245.65 55.79h5.79a1.12 1.12 0 0 1-.34.12H246a1.22 1.22 0 0 1-.35-.12ZM286.91 55.79h5.79a1.22 1.22 0 0 1-.35.11h-5.11a1.12 1.12 0 0 1-.33-.11ZM175.55 51a1 1 0 0 1-.3.1h-2a1.09 1.09 0 0 1-.3-.1ZM207.3 26.93h-1.58a3 3 0 0 1 1.58 0ZM172.65 51h-1.13a1.5 1.5 0 0 1 1.13 0ZM205.05 32.41l1.12-.09ZM154 51l-.9-.09ZM155.42 50.87l-.9.09ZM173.54 56.24l.9.1Z" class="cls-1"/><path d="M207.3 26.93a14.07 14.07 0 0 1 11.2 6.14l-4.13 3.4a4 4 0 0 1-.27-.29 9.49 9.49 0 0 0-4.27-3.28 6.5 6.5 0 0 0-2.28-.48c-.46 0-.92-.07-1.38-.11l-1.12.09a8.52 8.52 0 0 0-7.5 6.92 10.77 10.77 0 0 0 .6 6.5 8.47 8.47 0 0 0 5.76 4.94 11.6 11.6 0 0 0 4 .31l.57-.09a8.86 8.86 0 0 0 4.8-2.32 7.46 7.46 0 0 0 .73-.84.73.73 0 0 0 .16-.4v-2.11h-7.71a32.39 32.39 0 0 1-.07-5c.4-.11 12.84-.14 13.57 0v8.02a1.4 1.4 0 0 1-.23.78 15.08 15.08 0 0 1-10 6.92c-.4.09-.8.14-1.21.21l-.9.1h-2.45l-.9-.1a15.07 15.07 0 0 1-8.14-3.59 13.8 13.8 0 0 1-4.79-8.76A14.29 14.29 0 0 1 196 30.73a14.63 14.63 0 0 1 7.34-3.55 11.93 11.93 0 0 1 2.26-.25ZM286.91 55.79V27.48a2.47 2.47 0 0 1 .39-.06h10.84a10.68 10.68 0 0 1 5.86 1.76 8.22 8.22 0 0 1 3.7 5.82 9.45 9.45 0 0 1-.6 5.25 8.64 8.64 0 0 1-3.76 4.15l-.48.27 1 1.46 6.64 9.2c.1.13.17.28.26.43h-6.49c-.84-1.13-1.69-2.26-2.53-3.4l-4.55-6.21a.76.76 0 0 0-.69-.37H292.7v9.92Zm11.51-23.14a1.49 1.49 0 0 0-.36-.1h-5c-.09 0-.18.08-.27.12v7.91l.19.1h4.81l.67-.08a3.75 3.75 0 0 0 3.45-3.94 3.77 3.77 0 0 0-3.49-4.01ZM245.65 55.79V43.65h-12.56V55.1c0 .24 0 .48-.07.72h-5.75V27.56l.08-.09h5.76V38.3a3.43 3.43 0 0 0 .58.1h11.42a2.12 2.12 0 0 0 .5-.13V27.5h5.81v28.32ZM155.42 50.87a6.1 6.1 0 0 0 2.35-.84 5.4 5.4 0 0 0 2.36-3.2 9.49 9.49 0 0 0 .33-2.65v-16.7h5.77a3.6 3.6 0 0 1 0 .41c0 5.66.05 11.32 0 17a11.54 11.54 0 0 1-3.1 7.93A11 11 0 0 1 157.4 56a14.57 14.57 0 0 1-3.92.34 11.71 11.71 0 0 1-7.91-3.26 11.18 11.18 0 0 1-3.12-5.88 16.73 16.73 0 0 1-.33-3.44V27.5l.08-.09h5.8V44.49a7.74 7.74 0 0 0 .35 2.47 5.47 5.47 0 0 0 4.12 3.78c.2 0 .4.08.6.11l.9.09h.54ZM279.72 50.66v5.12h-19.54l-.09-.1V27.5h19.09v5.14h-12.77a2.18 2.18 0 0 0-.5.12v5.56l.19.1h9.59v4.9H266.46c-.18 0-.41-.11-.55.12v7a1.38 1.38 0 0 0 .39.13h1.45ZM124 27.52v23.03a3.63 3.63 0 0 0 .63.11h11.77v5.12h-17.55c-.22 0-.44 0-.66.05a4 4 0 0 1-.07-.54V27.5a47.59 47.59 0 0 1 5.78-.08ZM173.54 56.24l-2-.34v-4.93h1.45a1.09 1.09 0 0 0 .3.1h2a1 1 0 0 0 .3-.1 12.1 12.1 0 0 0 1.23-.34 2.43 2.43 0 0 0 1.55-2 6.88 6.88 0 0 0 .1-1.22V27.38h5.8V48.5a9.49 9.49 0 0 1-.48 3 6.4 6.4 0 0 1-4 4.11 12.19 12.19 0 0 1-4.93.67h-.45ZM204.39 56.24l.9.1ZM207.73 56.34l.9-.1ZM208.53 51l-.57.09ZM266.1 38.44l-.19-.1ZM260.18 55.79h-.1a.12.12 0 0 1 0-.1ZM227.31 27.42l-.08.09ZM142.23 27.42l-.08.09ZM124 27.52l-.08-.09ZM52.22 12.64a2.78 2.78 0 0 0 .3.44l5.42 5.42a2.1 2.1 0 0 0 .4.25 3 3 0 0 0 .33.5q2.69 2.71 5.4 5.41a2.35 2.35 0 0 0 .4.26 3.41 3.41 0 0 0 .32.44l5.35 5.35a3.35 3.35 0 0 0 .44.32 3.48 3.48 0 0 0 .34.48l5.17 5.18a5.26 5.26 0 0 1 .4.52c-.81-.12-1.61-.23-2.42-.37l-6.38-1.06-6.38-1.06-5.66-.95-4.93-.77a2.91 2.91 0 0 1-.36-.11c-.15-.9-.31-1.81-.47-2.73L48.7 23l-1-6.32q-.58-3.52-1.17-7c-.16-1-.31-1.94-.46-2.91a5.68 5.68 0 0 1 .47.38l5.2 5.19a3.53 3.53 0 0 0 .48.3Z" class="cls-1"/><path d="M64.48 24.92a2.35 2.35 0 0 1-.4-.26q-2.71-2.7-5.4-5.41a3 3 0 0 1-.33-.5l.39-.4Q67.68 9.4 76.62.44A1.34 1.34 0 0 1 77.69 0h5.51v5.67a1.11 1.11 0 0 1-.37.87ZM52.22 12.64a3.53 3.53 0 0 1-.53-.36l-5.2-5.19A5.68 5.68 0 0 0 46 6.7a.9.9 0 0 1 .13-.28q3.09-3.11 6.2-6.2a.76.76 0 0 1 .48-.2h11.81s.06 0 .13.06a1.5 1.5 0 0 1-.12.16ZM76.5 37.21a5.26 5.26 0 0 0-.4-.52l-5.17-5.18a3.48 3.48 0 0 1-.34-.48l12.59-12.6v11.85a1 1 0 0 1-.33.78C80.92 33 79 35 77 36.93c-.13.14-.23.37-.5.28ZM37.21 6.7c-.23 1.41-.45 2.82-.68 4.23-.31 1.91-.64 3.81-1 5.72l-1 5.72-.95 5.72-.8 4.78-1.19.22-8.52 1.42-7 1.16-7 1.18c-.78.13-1.57.23-2.36.34a5.81 5.81 0 0 1 .41-.51l5.16-5.17a3.49 3.49 0 0 0 .34-.48 3.37 3.37 0 0 0 .44-.32l5.35-5.35a3.38 3.38 0 0 0 .32-.44 2.34 2.34 0 0 0 .4-.26q2.71-2.7 5.41-5.41a3 3 0 0 0 .33-.5 1.65 1.65 0 0 0 .36-.21l5.5-5.5a2.25 2.25 0 0 0 .26-.41 3.53 3.53 0 0 0 .53-.37l5.2-5.19a5.33 5.33 0 0 1 .49-.37Z" class="cls-1"/><path d="M24.88 18.76a3 3 0 0 1-.33.5q-2.69 2.74-5.4 5.4a2.34 2.34 0 0 1-.4.26L.37 6.55A1.12 1.12 0 0 1 0 5.68V0h5.65a1.11 1.11 0 0 1 .88.36L23 16.85ZM37.21 6.7a5.33 5.33 0 0 0-.47.38l-5.2 5.19a3.53 3.53 0 0 1-.53.37l-5.81-5.8L18.92.56a5.35 5.35 0 0 0-.48-.38l.06-.12a2.44 2.44 0 0 1 .34 0h11.44a.88.88 0 0 1 .72.23l6 6a2.06 2.06 0 0 1 .21.41ZM12.64 31a3.49 3.49 0 0 1-.34.48l-5.16 5.2a5.81 5.81 0 0 0-.41.51 1.22 1.22 0 0 1-.38-.19c-2-2-4.08-4.08-6.13-6.11A.86.86 0 0 1 0 30.2V18.4ZM46.08 76.48c.09-.7.17-1.4.28-2.09.2-1.24.41-2.48.62-3.73l.74-4.38c.2-1.22.4-2.45.61-3.67.24-1.46.49-2.92.74-4.38.2-1.22.4-2.45.61-3.67s.44-2.52.64-3.78c.05-.32.19-.41.5-.46 1.7-.27 3.4-.57 5.1-.86l5-.82 5-.86 5.7-.93L76 46.1a2 2 0 0 1 .39 0 5.48 5.48 0 0 1-.4.51l-5.06 5.07a3.77 3.77 0 0 0-.37.53c-.14.12-.29.23-.42.36q-2.64 2.63-5.26 5.27a3.49 3.49 0 0 0-.36.53c-.27-.07-.4.13-.56.29l-5.38 5.39a2.67 2.67 0 0 0-.3.44c-.11.09-.24.18-.34.28l-5.46 5.46c-.1.1-.19.22-.28.34a3.37 3.37 0 0 0-.48.34l-5.18 5.17c-.14.14-.3.26-.46.4Z" class="cls-1"/><path d="M58.29 64.5a2.67 2.67 0 0 1 .3-.44L64 58.67c.15-.15.29-.35.56-.29l.43.44q8.91 8.91 17.83 17.82a1.35 1.35 0 0 1 .45 1.07v5.48H77l-.45-.42L58.77 65ZM70.57 52.22a3.77 3.77 0 0 1 .37-.53L76 46.62a5.48 5.48 0 0 0 .4-.51c.32-.12.48.11.66.29l5 5a4.49 4.49 0 0 1 1.08 1.19 4.2 4.2 0 0 1 .06 1.55v10.61h-.12ZM46.08 76.48c.15-.13.32-.25.46-.4l5.18-5.17a3.37 3.37 0 0 1 .48-.34l2 2.06 10 10 .42.44a3.83 3.83 0 0 1-.64.11H52.47L46.33 77c-.14-.13-.42-.23-.25-.52Z" class="cls-1"/><path d="M52.47 83.17H64a3.83 3.83 0 0 0 .64-.11v.2a2.13 2.13 0 0 1-.39 0H53a2.27 2.27 0 0 1-.53-.09ZM77 83.2h6.2a1.22 1.22 0 0 1-.35.11H77.4a1.45 1.45 0 0 1-.4-.11ZM83.09 64.75ZM6.82 46.11c.6.08 1.21.15 1.81.24l4.33.72 4.44.74 4.33.71 4.38.74 3.67.6 2.8.45c.23 0 .3.18.34.38.1.57.21 1.13.3 1.69l.76 4.49c.24 1.44.47 2.89.71 4.33s.5 2.92.74 4.38.47 2.89.71 4.33.49 2.88.72 4.33c.12.75.22 1.5.32 2.25-.17-.14-.35-.28-.5-.43l-5.17-5.16a3.37 3.37 0 0 0-.48-.34c-.09-.11-.18-.23-.29-.34l-5.46-5.46c-.1-.1-.23-.19-.34-.28a1.32 1.32 0 0 0-.18-.33q-2.78-2.8-5.58-5.58a1.54 1.54 0 0 0-.47-.22 1.57 1.57 0 0 0-.21-.35l-5.66-5.66a1.1 1.1 0 0 0-.18-.12 3.77 3.77 0 0 0-.37-.53l-5.06-5.07a5.46 5.46 0 0 1-.41-.51Z" class="cls-1"/><path d="M18.71 58.38a1.54 1.54 0 0 1 .47.22q2.8 2.78 5.58 5.58a1.32 1.32 0 0 1 .18.33l-.48.46L6.63 82.78l-.45.42H0v-5.81a1 1 0 0 1 .2-.49 2.5 2.5 0 0 1 .35-.36l17.73-17.72ZM6.82 46.11a5.46 5.46 0 0 0 .41.51l5.06 5.07a3.77 3.77 0 0 1 .37.53L.14 64.75H0V52.91a.83.83 0 0 1 .27-.64l6-6c.14-.12.3-.27.55-.16ZM31 70.58a3.37 3.37 0 0 1 .48.34l5.17 5.16c.16.16.34.29.5.43s-.07.34-.19.46l-1.57 1.58-4.66 4.63H19a2.13 2.13 0 0 1-.47-.11l.42-.44L30.52 71.1Z" class="cls-1"/><path d="M18.57 83.07a2.13 2.13 0 0 0 .47.11h11.72a2 2 0 0 1-.46.11H18.92a3.51 3.51 0 0 1-.38 0ZM0 83.18h6.19a2.39 2.39 0 0 1-.47.1H.49a2 2 0 0 1-.49-.1ZM0 64.76ZM298.42 32.65h-5.67c.09 0 .18-.12.27-.12h5a1.49 1.49 0 0 1 .4.12ZM297.74 40.67l.67-.08ZM292.75 40.58l.19.1Z" class="cls-1"/></g></g></svg>